<svg xmlns="http://www.w3.org/2000/svg" width="50px" height="50px" version="1.1" viewBox="0 0 752 752">
 <path d="m210.25 491.79c0 31.301 16.695 60.223 43.805 75.875 27.105 15.648 60.504 15.648 87.613 0 27.105-15.652 43.805-44.574 43.805-75.875v-231.58c0-24.535 13.09-47.203 34.336-59.469 21.246-12.266 47.422-12.266 68.668 0 21.246 12.266 34.336 34.934 34.336 59.469v74.637h-52.852l62.32 89.27 62.324-89.27h-52.852v-74.637c0-31.301-16.699-60.223-43.805-75.875-27.109-15.648-60.504-15.648-87.613 0-27.105 15.652-43.805 44.574-43.805 75.875v231.58c0 24.531-13.09 47.203-34.336 59.469-21.246 12.266-47.422 12.266-68.668 0s-34.336-34.938-34.336-59.469v-68.434h52.852l-62.324-89.223-62.324 89.223h52.855z" fill="#010101"/>
</svg>